<svg width="140" height="140" viewBox="0 0 140 140" fill="none" xmlns="http://www.w3.org/2000/svg">
<path d="M132.642 46.8295L102.932 68.6724V116.33H123.782C126.06 116.352 128.258 115.488 129.911 113.92C131.564 112.353 132.543 110.204 132.642 107.928V46.8295Z" fill="#F1F1F1"/>
<path d="M8 46.8295L37.633 68.8252V116.406H16.8594C14.5688 116.427 12.3605 115.553 10.7054 113.969C9.0504 112.385 8.07958 110.218 8 107.928V46.8295Z" fill="#F1F1F1"/>
<path d="M102.856 32.3185L70.2446 56.3762L37.633 32.3185V68.7487L70.2446 92.8064L102.856 68.7487V32.3185Z" fill="#F1F1F1"/>
<path d="M8 35.5262V46.8295L37.633 68.8252L37.633 32.3185L28.3918 25.5213C26.1844 23.8795 23.5054 22.9954 20.7544 23.0009C19.0931 22.9808 17.4443 23.2893 15.9027 23.9088C14.3611 24.5283 12.9572 25.4465 11.7718 26.6105C10.5865 27.7746 9.64296 29.1616 8.99564 30.6917C8.34832 32.2218 8.00995 33.8648 8 35.5262Z" fill="#F1F1F1"/>
<path d="M132.566 35.5262V46.8295L102.856 68.6724V32.3185L112.174 25.5213C114.381 23.8795 117.06 22.9954 119.811 23.0009C121.472 22.9808 123.121 23.2893 124.663 23.9088C126.204 24.5283 127.608 25.4465 128.794 26.6105C129.979 27.7746 130.923 29.1616 131.57 30.6917C132.217 32.2218 132.556 33.8648 132.566 35.5262Z" fill="#F1F1F1"/>
<mask id="mask0_7_71" style="mask-type:alpha" maskUnits="userSpaceOnUse" x="8" y="23" width="30" height="94">
<path d="M8 46.8295L37.633 68.8251V116.406H16.8594C14.5688 116.427 12.3605 115.553 10.7054 113.969C9.0504 112.385 8.07958 110.218 8 107.928V46.8295Z" fill="#F8F8F8"/>
<path d="M8 35.5262V46.8295L37.633 68.8251V32.3185L28.3918 25.5213C26.1844 23.8795 23.5054 22.9954 20.7544 23.0009C19.0931 22.9808 17.4443 23.2893 15.9027 23.9088C14.3611 24.5283 12.9572 25.4465 11.7718 26.6105C10.5865 27.7746 9.64296 29.1616 8.99564 30.6917C8.34832 32.2218 8.00995 33.8648 8 35.5262Z" fill="#F8F8F8"/>
</mask>
<g mask="url(#mask0_7_71)">
<rect opacity="0.86" x="6.88002" y="21.8801" width="31.36" height="95.2" fill="#1E88E5"/>
</g>
<mask id="mask1_7_71" style="mask-type:alpha" maskUnits="userSpaceOnUse" x="8" y="23" width="125" height="70">
<path d="M132.566 35.5262V46.8295L102.856 68.6724V32.3185L112.174 25.5213C114.381 23.8795 117.06 22.9954 119.811 23.0009C121.472 22.9808 123.121 23.2893 124.663 23.9088C126.204 24.5283 127.608 25.4465 128.794 26.6105C129.979 27.7746 130.923 29.1616 131.57 30.6917C132.217 32.2218 132.556 33.8648 132.566 35.5262Z" fill="#F8F8F8"/>
<path d="M8 35.5262V46.8295L37.633 68.8251V32.3185L28.3918 25.5213C26.1844 23.8795 23.5054 22.9954 20.7544 23.0009C19.0931 22.9808 17.4443 23.2893 15.9027 23.9088C14.3611 24.5283 12.9572 25.4465 11.7718 26.6105C10.5865 27.7746 9.64296 29.1616 8.99564 30.6917C8.34832 32.2218 8.00995 33.8648 8 35.5262Z" fill="#F8F8F8"/>
<path d="M102.856 32.3185L70.2446 56.3762L37.633 32.3185L37.633 68.7487L70.2446 92.8064L102.856 68.7487V32.3185Z" fill="#F8F8F8"/>
</mask>
<g mask="url(#mask1_7_71)">
<g opacity="0.86">
<path d="M132.566 35.5262V46.8295L102.856 68.6724V32.3185L112.174 25.5213C114.381 23.8795 117.06 22.9954 119.811 23.0009C121.472 22.9808 123.121 23.2893 124.663 23.9088C126.204 24.5283 127.608 25.4465 128.794 26.6105C129.979 27.7746 130.923 29.1616 131.57 30.6917C132.217 32.2218 132.556 33.8648 132.566 35.5262Z" fill="#E53935"/>
<path d="M8 35.5262V46.8295L37.633 68.8251V32.3185L28.3918 25.5213C26.1844 23.8795 23.5054 22.9954 20.7544 23.0009C19.0931 22.9808 17.4443 23.2893 15.9027 23.9088C14.3611 24.5283 12.9572 25.4465 11.7718 26.6105C10.5865 27.7746 9.64296 29.1616 8.99564 30.6917C8.34832 32.2218 8.00995 33.8648 8 35.5262Z" fill="#E53935"/>
<path d="M102.856 32.3185L70.2446 56.3762L37.633 32.3185L37.633 68.7487L70.2446 92.8064L102.856 68.7487V32.3185Z" fill="#E53935"/>
</g>
</g>
<mask id="mask2_7_71" style="mask-type:alpha" maskUnits="userSpaceOnUse" x="103" y="23" width="30" height="94">
<path d="M132.833 46.8296L103.2 68.8252V116.406H123.974C126.264 116.427 128.473 115.553 130.128 113.969C131.783 112.385 132.753 110.218 132.833 107.929V46.8296Z" fill="#F8F8F8"/>
<path d="M132.833 35.5263V46.8296L103.2 68.8252V32.3186L112.441 25.5213C114.649 23.8795 117.328 22.9955 120.079 23.001C121.74 22.9808 123.389 23.2894 124.93 23.9088C126.472 24.5283 127.876 25.4465 129.061 26.6106C130.247 27.7747 131.19 29.1617 131.837 30.6918C132.485 32.2219 132.823 33.8649 132.833 35.5263Z" fill="#F8F8F8"/>
</mask>
<g mask="url(#mask2_7_71)">
<rect opacity="0.86" x="102.08" y="21.8801" width="31.36" height="95.2" fill="#4CAF50"/>
</g>
</svg>
